<mxfile host="app.diagrams.net" agent="Mozilla/5.0 (Macintosh; Intel Mac OS X 10_15_7) AppleWebKit/537.36 (KHTML, like Gecko) Chrome/128.0.0.0 Safari/537.36" version="27.1.1">
  <diagram name="Page-1" id="wWp1WaGITyB23nC1tqhF">
    <mxGraphModel dx="1665" dy="768" grid="1" gridSize="10" guides="1" tooltips="1" connect="1" arrows="1" fold="1" page="1" pageScale="1" pageWidth="827" pageHeight="1169" math="0" shadow="0">
      <root>
        <mxCell id="0" />
        <mxCell id="1" parent="0" />
        <mxCell id="gj99UnRE8zln3iBi-X9t-3" style="edgeStyle=orthogonalEdgeStyle;rounded=0;orthogonalLoop=1;jettySize=auto;html=1;exitX=1;exitY=0.5;exitDx=0;exitDy=0;entryX=0;entryY=0.5;entryDx=0;entryDy=0;" edge="1" parent="1" source="gj99UnRE8zln3iBi-X9t-1" target="gj99UnRE8zln3iBi-X9t-2">
          <mxGeometry relative="1" as="geometry" />
        </mxCell>
        <mxCell id="gj99UnRE8zln3iBi-X9t-1" value="Outer Reality" style="rounded=1;whiteSpace=wrap;html=1;" vertex="1" parent="1">
          <mxGeometry x="80" y="99" width="120" height="60" as="geometry" />
        </mxCell>
        <mxCell id="gj99UnRE8zln3iBi-X9t-2" value="Physical Human Being" style="rounded=1;whiteSpace=wrap;html=1;" vertex="1" parent="1">
          <mxGeometry x="320" y="99" width="120" height="60" as="geometry" />
        </mxCell>
        <mxCell id="gj99UnRE8zln3iBi-X9t-4" value="input" style="text;html=1;align=center;verticalAlign=middle;whiteSpace=wrap;rounded=0;" vertex="1" parent="1">
          <mxGeometry x="230" y="99" width="60" height="30" as="geometry" />
        </mxCell>
        <mxCell id="gj99UnRE8zln3iBi-X9t-17" style="edgeStyle=orthogonalEdgeStyle;rounded=0;orthogonalLoop=1;jettySize=auto;html=1;entryX=1;entryY=0.5;entryDx=0;entryDy=0;" edge="1" parent="1" source="gj99UnRE8zln3iBi-X9t-7" target="gj99UnRE8zln3iBi-X9t-16">
          <mxGeometry relative="1" as="geometry" />
        </mxCell>
        <mxCell id="gj99UnRE8zln3iBi-X9t-7" value="Human consciousness" style="rounded=1;whiteSpace=wrap;html=1;" vertex="1" parent="1">
          <mxGeometry x="571.45" y="280" width="120" height="60" as="geometry" />
        </mxCell>
        <mxCell id="gj99UnRE8zln3iBi-X9t-9" value="&lt;div style=&quot;text-align: center;&quot;&gt;&lt;span style=&quot;background-color: transparent; color: light-dark(rgb(0, 0, 0), rgb(255, 255, 255));&quot;&gt;stimulus&lt;/span&gt;&lt;/div&gt;" style="text;whiteSpace=wrap;html=1;" vertex="1" parent="1">
          <mxGeometry x="480" y="99" width="50" height="40" as="geometry" />
        </mxCell>
        <mxCell id="gj99UnRE8zln3iBi-X9t-14" style="edgeStyle=orthogonalEdgeStyle;rounded=0;orthogonalLoop=1;jettySize=auto;html=1;exitX=0.5;exitY=1;exitDx=0;exitDy=0;entryX=0.5;entryY=0;entryDx=0;entryDy=0;" edge="1" parent="1" source="gj99UnRE8zln3iBi-X9t-11" target="gj99UnRE8zln3iBi-X9t-7">
          <mxGeometry relative="1" as="geometry" />
        </mxCell>
        <mxCell id="gj99UnRE8zln3iBi-X9t-11" value="Nachträglichkeit&lt;div&gt;or&lt;/div&gt;&lt;div&gt;différance&lt;br&gt;&lt;/div&gt;" style="rhombus;whiteSpace=wrap;html=1;" vertex="1" parent="1">
          <mxGeometry x="560" y="63.5" width="142.91" height="131" as="geometry" />
        </mxCell>
        <mxCell id="gj99UnRE8zln3iBi-X9t-13" style="edgeStyle=orthogonalEdgeStyle;rounded=0;orthogonalLoop=1;jettySize=auto;html=1;exitX=1;exitY=0.5;exitDx=0;exitDy=0;entryX=0;entryY=0.5;entryDx=0;entryDy=0;" edge="1" parent="1" source="gj99UnRE8zln3iBi-X9t-2" target="gj99UnRE8zln3iBi-X9t-11">
          <mxGeometry relative="1" as="geometry" />
        </mxCell>
        <mxCell id="gj99UnRE8zln3iBi-X9t-15" value="meaning attaching" style="text;html=1;align=center;verticalAlign=middle;whiteSpace=wrap;rounded=0;" vertex="1" parent="1">
          <mxGeometry x="633.45" y="220" width="60" height="30" as="geometry" />
        </mxCell>
        <mxCell id="gj99UnRE8zln3iBi-X9t-20" value="" style="edgeStyle=orthogonalEdgeStyle;rounded=0;orthogonalLoop=1;jettySize=auto;html=1;" edge="1" parent="1" source="gj99UnRE8zln3iBi-X9t-16" target="gj99UnRE8zln3iBi-X9t-19">
          <mxGeometry relative="1" as="geometry" />
        </mxCell>
        <mxCell id="gj99UnRE8zln3iBi-X9t-16" value="social practice" style="rounded=1;whiteSpace=wrap;html=1;" vertex="1" parent="1">
          <mxGeometry x="320" y="280" width="120" height="60" as="geometry" />
        </mxCell>
        <mxCell id="gj99UnRE8zln3iBi-X9t-18" value="subjectivity" style="text;html=1;align=center;verticalAlign=middle;resizable=0;points=[];autosize=1;strokeColor=none;fillColor=none;" vertex="1" parent="1">
          <mxGeometry x="465" y="280" width="80" height="30" as="geometry" />
        </mxCell>
        <mxCell id="gj99UnRE8zln3iBi-X9t-19" value="tertiary retention" style="whiteSpace=wrap;html=1;rounded=1;" vertex="1" parent="1">
          <mxGeometry x="80" y="280" width="120" height="60" as="geometry" />
        </mxCell>
        <mxCell id="gj99UnRE8zln3iBi-X9t-21" value="filtered" style="text;html=1;align=center;verticalAlign=middle;resizable=0;points=[];autosize=1;strokeColor=none;fillColor=none;" vertex="1" parent="1">
          <mxGeometry x="230" y="280" width="60" height="30" as="geometry" />
        </mxCell>
        <mxCell id="gj99UnRE8zln3iBi-X9t-25" value="" style="shape=link;html=1;rounded=0;entryX=0.5;entryY=1;entryDx=0;entryDy=0;exitX=0.5;exitY=0;exitDx=0;exitDy=0;" edge="1" parent="1" source="gj99UnRE8zln3iBi-X9t-19" target="gj99UnRE8zln3iBi-X9t-1">
          <mxGeometry relative="1" as="geometry">
            <mxPoint x="20" y="200" as="sourcePoint" />
            <mxPoint x="180" y="200" as="targetPoint" />
          </mxGeometry>
        </mxCell>
        <mxCell id="gj99UnRE8zln3iBi-X9t-26" value="augmentation" style="resizable=0;html=1;whiteSpace=wrap;align=left;verticalAlign=bottom;" connectable="0" vertex="1" parent="gj99UnRE8zln3iBi-X9t-25">
          <mxGeometry x="-1" relative="1" as="geometry">
            <mxPoint x="10" y="-100" as="offset" />
          </mxGeometry>
        </mxCell>
        <mxCell id="gj99UnRE8zln3iBi-X9t-27" value="crystalization" style="resizable=0;html=1;whiteSpace=wrap;align=right;verticalAlign=bottom;" connectable="0" vertex="1" parent="gj99UnRE8zln3iBi-X9t-25">
          <mxGeometry x="1" relative="1" as="geometry">
            <mxPoint x="80" y="116" as="offset" />
          </mxGeometry>
        </mxCell>
      </root>
    </mxGraphModel>
  </diagram>
</mxfile>
